<?xml version="1.0" encoding="UTF-8"?>
<svg id="_图层_1" data-name="图层 1" xmlns="http://www.w3.org/2000/svg" version="1.1" viewBox="0 0 101.4 33.5">
  <defs>
    <style>
      .cls-1 {
        fill: #f48120;
      }

      .cls-1, .cls-2, .cls-3 {
        stroke-width: 0px;
      }

      .cls-2 {
        fill: #faad3f;
      }

      .cls-3 {
        fill: #fff;
      }
    </style>
  </defs>
  <path class="cls-3" d="M69,15.9l-5.6-1.3-1-.4-25.7.2v12.4h32.3c0,.1,0-10.9,0-10.9Z"/>
  <path class="cls-1" d="M58.5,25.7c.3-.9.2-1.8-.3-2.6-.5-.6-1.3-1-2.1-1.1l-17.4-.2c0,0-.2-.1-.3-.1,0,0,0-.2,0-.3,0,0,0,0,0,0,0-.2.2-.3.4-.3l17.5-.2c2.3-.3,4.2-1.7,5.1-3.8l1-2.6c0-.1,0-.2,0-.3-1.4-6.1-7.5-10-13.6-8.6-3.9.9-7,3.7-8.3,7.4-1-.7-2.3-1.1-3.6-1-2.4.3-4.3,2.2-4.6,4.6,0,.6,0,1.2,0,1.8-4,.1-7.1,3.3-7.1,7.3,0,.4,0,.7,0,1.1,0,.2.1.3.3.3h32.1c.2,0,.4-.1.4-.3l.3-1.1Z"/>
  <path class="cls-2" d="M64,14.5h-.5c0,0-.2.1-.3.2l-.7,2.4c-.3.9-.2,1.8.3,2.6.5.6,1.3,1,2.1,1.1l3.7.2c0,0,.2.1.3.1,0,0,0,.2,0,.3,0,0,0,0,0,0,0,.2-.2.3-.4.3l-3.8.2c-2.3.3-4.2,1.7-5.1,3.8l-.2.9c0,.1,0,.3.2.3h13.2c.1,0,.3,0,.3-.2,0,0,0,0,0,0,.2-.8.4-1.7.4-2.6,0-5.2-4.3-9.5-9.5-9.5"/>
</svg>