<?xml version="1.0" encoding="UTF-8"?>
<svg id="_图层_1" data-name="图层 1" xmlns="http://www.w3.org/2000/svg" version="1.1" viewBox="0 0 32 32">
  <defs>
    <style>
      .cls-1, .cls-2 {
        fill: #fff;
        fill-rule: evenodd;
        stroke-width: 0px;
      }

      .cls-2 {
        fill-opacity: .7;
      }
    </style>
  </defs>
  <path class="cls-1" d="M19.6,7.8v.9l-1,1.1v-.9H7.6v13.8h11.1v-4.1l1-1.1v6.2H6.5V7.8h13.1ZM12.6,13.1v1.1h-3v-1.1s3,0,3,0ZM14.6,11v1.1h-5v-1.1h5Z"/>
  <path class="cls-2" d="M23.5,11.1l-2-2.1c-.2-.2-.5-.2-.7,0,0,0,0,0,0,0l-6,6.4c0,0-.1.2-.1.4v2.7h2.5c.1,0,.3,0,.4-.2l6-6.4c.2-.2.2-.5,0-.7ZM16.9,17.3h-1.3v-1.4l4-4.2,1.3,1.4-4,4.2h0ZM21.6,12.3l-1.3-1.4.8-.8,1.3,1.4-.8.8Z"/>
</svg>